<svg width="215" height="42" viewBox="0 0 215 42" fill="none" xmlns="http://www.w3.org/2000/svg">
<path d="M35.386 23.7812C36.658 23.7812 37.654 24.1652 38.374 24.9332C39.106 25.7012 39.472 26.7512 39.472 28.0832V33.9692H35.944V28.5512C35.944 28.0112 35.794 27.5912 35.494 27.2912C35.194 26.9912 34.786 26.8412 34.27 26.8412C33.754 26.8412 33.346 26.9912 33.046 27.2912C32.746 27.5912 32.596 28.0112 32.596 28.5512V33.9692H29.068V28.5512C29.068 28.0112 28.918 27.5912 28.618 27.2912C28.33 26.9912 27.928 26.8412 27.412 26.8412C26.884 26.8412 26.47 26.9912 26.17 27.2912C25.87 27.5912 25.72 28.0112 25.72 28.5512V33.9692H22.192V23.8712H25.72V25.2032C26.032 24.7712 26.434 24.4292 26.926 24.1772C27.43 23.9132 28.006 23.7812 28.654 23.7812C29.398 23.7812 30.058 23.9432 30.634 24.2672C31.222 24.5912 31.684 25.0472 32.02 25.6352C32.38 25.0832 32.854 24.6392 33.442 24.3032C34.03 23.9552 34.678 23.7812 35.386 23.7812ZM44.9329 25.2752C45.2089 24.8072 45.5989 24.4352 46.1029 24.1592C46.6069 23.8832 47.2009 23.7452 47.8849 23.7452C48.6889 23.7452 49.4149 23.9552 50.0629 24.3752C50.7229 24.7952 51.2389 25.3952 51.6109 26.1752C51.9949 26.9552 52.1869 27.8672 52.1869 28.9112C52.1869 29.9552 51.9949 30.8732 51.6109 31.6652C51.2389 32.4452 50.7229 33.0452 50.0629 33.4652C49.4149 33.8852 48.6889 34.0952 47.8849 34.0952C47.2009 34.0952 46.6069 33.9572 46.1029 33.6812C45.6109 33.4052 45.2209 33.0332 44.9329 32.5652V38.7932H41.4049V23.8712H44.9329V25.2752ZM48.6049 28.9112C48.6049 28.2512 48.4249 27.7412 48.0649 27.3812C47.7169 27.0092 47.2849 26.8232 46.7689 26.8232C46.2529 26.8232 45.8149 27.0092 45.4549 27.3812C45.1069 27.7532 44.9329 28.2632 44.9329 28.9112C44.9329 29.5712 45.1069 30.0872 45.4549 30.4592C45.8149 30.8312 46.2529 31.0172 46.7689 31.0172C47.2849 31.0172 47.7169 30.8312 48.0649 30.4592C48.4249 30.0752 48.6049 29.5592 48.6049 28.9112ZM57.1673 20.6492V33.9692H53.6393V20.6492H57.1673ZM58.6004 28.9112C58.6004 27.8672 58.7864 26.9552 59.1584 26.1752C59.5424 25.3952 60.0584 24.7952 60.7064 24.3752C61.3664 23.9552 62.0984 23.7452 62.9024 23.7452C63.5984 23.7452 64.1984 23.8832 64.7024 24.1592C65.2064 24.4352 65.5964 24.8072 65.8724 25.2752V23.8712H69.4004V33.9692H65.8724V32.5652C65.5964 33.0332 65.2004 33.4052 64.6844 33.6812C64.1804 33.9572 63.5864 34.0952 62.9024 34.0952C62.0984 34.0952 61.3664 33.8852 60.7064 33.4652C60.0584 33.0452 59.5424 32.4452 59.1584 31.6652C58.7864 30.8732 58.6004 29.9552 58.6004 28.9112ZM65.8724 28.9112C65.8724 28.2632 65.6924 27.7532 65.3324 27.3812C64.9844 27.0092 64.5524 26.8232 64.0364 26.8232C63.5084 26.8232 63.0704 27.0092 62.7224 27.3812C62.3744 27.7412 62.2004 28.2512 62.2004 28.9112C62.2004 29.5592 62.3744 30.0752 62.7224 30.4592C63.0704 30.8312 63.5084 31.0172 64.0364 31.0172C64.5524 31.0172 64.9844 30.8312 65.3324 30.4592C65.6924 30.0872 65.8724 29.5712 65.8724 28.9112ZM77.3687 30.9632V33.9692H75.8387C73.2587 33.9692 71.9687 32.6912 71.9687 30.1352V26.8052H70.7267V23.8712H71.9687V21.4232H75.5147V23.8712H77.3507V26.8052H75.5147V30.1892C75.5147 30.4652 75.5747 30.6632 75.6947 30.7832C75.8267 30.9032 76.0427 30.9632 76.3427 30.9632H77.3687ZM88.6349 28.8032C88.6349 29.0792 88.6169 29.3552 88.5809 29.6312H81.9029C81.9389 30.1832 82.0889 30.5972 82.3529 30.8732C82.6289 31.1372 82.9769 31.2692 83.3969 31.2692C83.9849 31.2692 84.4049 31.0052 84.6569 30.4772H88.4189C88.2629 31.1732 87.9569 31.7972 87.5009 32.3492C87.0569 32.8892 86.4929 33.3152 85.8089 33.6272C85.1249 33.9392 84.3689 34.0952 83.5409 34.0952C82.5449 34.0952 81.6569 33.8852 80.8769 33.4652C80.1089 33.0452 79.5029 32.4452 79.0589 31.6652C78.6269 30.8852 78.4109 29.9672 78.4109 28.9112C78.4109 27.8552 78.6269 26.9432 79.0589 26.1752C79.4909 25.3952 80.0909 24.7952 80.8589 24.3752C81.6389 23.9552 82.5329 23.7452 83.5409 23.7452C84.5369 23.7452 85.4189 23.9492 86.1869 24.3572C86.9549 24.7652 87.5549 25.3532 87.9869 26.1212C88.4189 26.8772 88.6349 27.7712 88.6349 28.8032ZM85.0349 27.9212C85.0349 27.4892 84.8909 27.1532 84.6029 26.9132C84.3149 26.6612 83.9549 26.5352 83.5229 26.5352C83.0909 26.5352 82.7369 26.6552 82.4609 26.8952C82.1849 27.1232 82.0049 27.4652 81.9209 27.9212H85.0349ZM103.55 25.5092C103.55 26.2772 103.37 26.9792 103.01 27.6152C102.662 28.2392 102.128 28.7432 101.408 29.1272C100.7 29.4992 99.83 29.6852 98.798 29.6852H97.052V33.9692H93.524V21.2792H98.798C99.818 21.2792 100.682 21.4592 101.39 21.8192C102.11 22.1792 102.65 22.6772 103.01 23.3132C103.37 23.9492 103.55 24.6812 103.55 25.5092ZM98.456 26.8772C99.452 26.8772 99.95 26.4212 99.95 25.5092C99.95 24.5852 99.452 24.1232 98.456 24.1232H97.052V26.8772H98.456ZM108.495 25.6532C108.891 25.0772 109.371 24.6212 109.935 24.2852C110.499 23.9492 111.105 23.7812 111.753 23.7812V27.5432H110.763C109.995 27.5432 109.425 27.6932 109.053 27.9932C108.681 28.2932 108.495 28.8152 108.495 29.5592V33.9692H104.967V23.8712H108.495V25.6532ZM117.716 34.0952C116.708 34.0952 115.802 33.8852 114.998 33.4652C114.206 33.0452 113.582 32.4452 113.126 31.6652C112.67 30.8852 112.442 29.9672 112.442 28.9112C112.442 27.8672 112.67 26.9552 113.126 26.1752C113.594 25.3952 114.224 24.7952 115.016 24.3752C115.82 23.9552 116.726 23.7452 117.734 23.7452C118.742 23.7452 119.642 23.9552 120.434 24.3752C121.238 24.7952 121.868 25.3952 122.324 26.1752C122.792 26.9552 123.026 27.8672 123.026 28.9112C123.026 29.9552 122.792 30.8732 122.324 31.6652C121.868 32.4452 121.238 33.0452 120.434 33.4652C119.63 33.8852 118.724 34.0952 117.716 34.0952ZM117.716 31.0352C118.208 31.0352 118.616 30.8552 118.94 30.4952C119.276 30.1232 119.444 29.5952 119.444 28.9112C119.444 28.2272 119.276 27.7052 118.94 27.3452C118.616 26.9852 118.214 26.8052 117.734 26.8052C117.254 26.8052 116.852 26.9852 116.528 27.3452C116.204 27.7052 116.042 28.2272 116.042 28.9112C116.042 29.6072 116.198 30.1352 116.51 30.4952C116.822 30.8552 117.224 31.0352 117.716 31.0352ZM128.188 23.7452C128.872 23.7452 129.466 23.8832 129.97 24.1592C130.486 24.4352 130.882 24.8072 131.158 25.2752V23.8712H134.686V33.8612C134.686 34.8092 134.506 35.6612 134.146 36.4172C133.786 37.1852 133.222 37.7972 132.454 38.2532C131.698 38.7092 130.738 38.9372 129.574 38.9372C128.014 38.9372 126.766 38.5712 125.83 37.8392C124.894 37.1072 124.36 36.1112 124.228 34.8512H127.702C127.774 35.1752 127.954 35.4272 128.242 35.6072C128.53 35.7872 128.902 35.8772 129.358 35.8772C130.558 35.8772 131.158 35.2052 131.158 33.8612V32.5652C130.882 33.0332 130.486 33.4052 129.97 33.6812C129.466 33.9572 128.872 34.0952 128.188 34.0952C127.384 34.0952 126.652 33.8852 125.992 33.4652C125.344 33.0452 124.828 32.4452 124.444 31.6652C124.072 30.8732 123.886 29.9552 123.886 28.9112C123.886 27.8672 124.072 26.9552 124.444 26.1752C124.828 25.3952 125.344 24.7952 125.992 24.3752C126.652 23.9552 127.384 23.7452 128.188 23.7452ZM131.158 28.9112C131.158 28.2632 130.978 27.7532 130.618 27.3812C130.27 27.0092 129.838 26.8232 129.322 26.8232C128.794 26.8232 128.356 27.0092 128.008 27.3812C127.66 27.7412 127.486 28.2512 127.486 28.9112C127.486 29.5592 127.66 30.0752 128.008 30.4592C128.356 30.8312 128.794 31.0172 129.322 31.0172C129.838 31.0172 130.27 30.8312 130.618 30.4592C130.978 30.0872 131.158 29.5712 131.158 28.9112ZM140.224 25.6532C140.62 25.0772 141.1 24.6212 141.664 24.2852C142.228 23.9492 142.834 23.7812 143.482 23.7812V27.5432H142.492C141.724 27.5432 141.154 27.6932 140.782 27.9932C140.41 28.2932 140.224 28.8152 140.224 29.5592V33.9692H136.696V23.8712H140.224V25.6532ZM144.171 28.9112C144.171 27.8672 144.357 26.9552 144.729 26.1752C145.113 25.3952 145.629 24.7952 146.277 24.3752C146.937 23.9552 147.669 23.7452 148.473 23.7452C149.169 23.7452 149.769 23.8832 150.273 24.1592C150.777 24.4352 151.167 24.8072 151.443 25.2752V23.8712H154.971V33.9692H151.443V32.5652C151.167 33.0332 150.771 33.4052 150.255 33.6812C149.751 33.9572 149.157 34.0952 148.473 34.0952C147.669 34.0952 146.937 33.8852 146.277 33.4652C145.629 33.0452 145.113 32.4452 144.729 31.6652C144.357 30.8732 144.171 29.9552 144.171 28.9112ZM151.443 28.9112C151.443 28.2632 151.263 27.7532 150.903 27.3812C150.555 27.0092 150.123 26.8232 149.607 26.8232C149.079 26.8232 148.641 27.0092 148.293 27.3812C147.945 27.7412 147.771 28.2512 147.771 28.9112C147.771 29.5592 147.945 30.0752 148.293 30.4592C148.641 30.8312 149.079 31.0172 149.607 31.0172C150.123 31.0172 150.555 30.8312 150.903 30.4592C151.263 30.0872 151.443 29.5712 151.443 28.9112ZM170.175 23.7812C171.447 23.7812 172.443 24.1652 173.163 24.9332C173.895 25.7012 174.261 26.7512 174.261 28.0832V33.9692H170.733V28.5512C170.733 28.0112 170.583 27.5912 170.283 27.2912C169.983 26.9912 169.575 26.8412 169.059 26.8412C168.543 26.8412 168.135 26.9912 167.835 27.2912C167.535 27.5912 167.385 28.0112 167.385 28.5512V33.9692H163.857V28.5512C163.857 28.0112 163.707 27.5912 163.407 27.2912C163.119 26.9912 162.717 26.8412 162.201 26.8412C161.673 26.8412 161.259 26.9912 160.959 27.2912C160.659 27.5912 160.509 28.0112 160.509 28.5512V33.9692H156.981V23.8712H160.509V25.2032C160.821 24.7712 161.223 24.4292 161.715 24.1772C162.219 23.9132 162.795 23.7812 163.443 23.7812C164.187 23.7812 164.847 23.9432 165.423 24.2672C166.011 24.5912 166.473 25.0472 166.809 25.6352C167.169 25.0832 167.643 24.6392 168.231 24.3032C168.819 23.9552 169.467 23.7812 170.175 23.7812ZM189.388 23.7812C190.66 23.7812 191.656 24.1652 192.376 24.9332C193.108 25.7012 193.474 26.7512 193.474 28.0832V33.9692H189.946V28.5512C189.946 28.0112 189.796 27.5912 189.496 27.2912C189.196 26.9912 188.788 26.8412 188.272 26.8412C187.756 26.8412 187.348 26.9912 187.048 27.2912C186.748 27.5912 186.598 28.0112 186.598 28.5512V33.9692H183.07V28.5512C183.07 28.0112 182.92 27.5912 182.62 27.2912C182.332 26.9912 181.93 26.8412 181.414 26.8412C180.886 26.8412 180.472 26.9912 180.172 27.2912C179.872 27.5912 179.722 28.0112 179.722 28.5512V33.9692H176.194V23.8712H179.722V25.2032C180.034 24.7712 180.436 24.4292 180.928 24.1772C181.432 23.9132 182.008 23.7812 182.656 23.7812C183.4 23.7812 184.06 23.9432 184.636 24.2672C185.224 24.5912 185.686 25.0472 186.022 25.6352C186.382 25.0832 186.856 24.6392 187.444 24.3032C188.032 23.9552 188.68 23.7812 189.388 23.7812ZM205.055 28.8032C205.055 29.0792 205.037 29.3552 205.001 29.6312H198.323C198.359 30.1832 198.509 30.5972 198.773 30.8732C199.049 31.1372 199.397 31.2692 199.817 31.2692C200.405 31.2692 200.825 31.0052 201.077 30.4772H204.839C204.683 31.1732 204.377 31.7972 203.921 32.3492C203.477 32.8892 202.913 33.3152 202.229 33.6272C201.545 33.9392 200.789 34.0952 199.961 34.0952C198.965 34.0952 198.077 33.8852 197.297 33.4652C196.529 33.0452 195.923 32.4452 195.479 31.6652C195.047 30.8852 194.831 29.9672 194.831 28.9112C194.831 27.8552 195.047 26.9432 195.479 26.1752C195.911 25.3952 196.511 24.7952 197.279 24.3752C198.059 23.9552 198.953 23.7452 199.961 23.7452C200.957 23.7452 201.839 23.9492 202.607 24.3572C203.375 24.7652 203.975 25.3532 204.407 26.1212C204.839 26.8772 205.055 27.7712 205.055 28.8032ZM201.455 27.9212C201.455 27.4892 201.311 27.1532 201.023 26.9132C200.735 26.6612 200.375 26.5352 199.943 26.5352C199.511 26.5352 199.157 26.6552 198.881 26.8952C198.605 27.1232 198.425 27.4652 198.341 27.9212H201.455ZM210.027 25.6532C210.423 25.0772 210.903 24.6212 211.467 24.2852C212.031 23.9492 212.637 23.7812 213.285 23.7812V27.5432H212.295C211.527 27.5432 210.957 27.6932 210.585 27.9932C210.213 28.2932 210.027 28.8152 210.027 29.5592V33.9692H206.499V23.8712H210.027V25.6532Z" fill="white" fill-opacity="0.9"/>
<path fill-rule="evenodd" clip-rule="evenodd" d="M9.94147 0C11.6761 0.618177 13.0129 1.55163 13.184 2.92619C14.621 2.01507 16.813 0.814532 18.9658 0H25.3218C25.9373 0.393173 26.8713 1.12912 27.36 1.93183V7.488H18.336V33.84H8.928V7.488H0V0H9.94147Z" fill="white" fill-opacity="0.9"/>
</svg>
