<svg width="215" height="41" viewBox="0 0 215 41" fill="none" xmlns="http://www.w3.org/2000/svg">
<path d="M35.386 23.652C36.658 23.652 37.654 24.036 38.374 24.804C39.106 25.572 39.472 26.622 39.472 27.954V33.84H35.944V28.422C35.944 27.882 35.794 27.462 35.494 27.162C35.194 26.862 34.786 26.712 34.27 26.712C33.754 26.712 33.346 26.862 33.046 27.162C32.746 27.462 32.596 27.882 32.596 28.422V33.84H29.068V28.422C29.068 27.882 28.918 27.462 28.618 27.162C28.33 26.862 27.928 26.712 27.412 26.712C26.884 26.712 26.47 26.862 26.17 27.162C25.87 27.462 25.72 27.882 25.72 28.422V33.84H22.192V23.742H25.72V25.074C26.032 24.642 26.434 24.3 26.926 24.048C27.43 23.784 28.006 23.652 28.654 23.652C29.398 23.652 30.058 23.814 30.634 24.138C31.222 24.462 31.684 24.918 32.02 25.506C32.38 24.954 32.854 24.51 33.442 24.174C34.03 23.826 34.678 23.652 35.386 23.652ZM44.9329 25.146C45.2089 24.678 45.5989 24.306 46.1029 24.03C46.6069 23.754 47.2009 23.616 47.8849 23.616C48.6889 23.616 49.4149 23.826 50.0629 24.246C50.7229 24.666 51.2389 25.266 51.6109 26.046C51.9949 26.826 52.1869 27.738 52.1869 28.782C52.1869 29.826 51.9949 30.744 51.6109 31.536C51.2389 32.316 50.7229 32.916 50.0629 33.336C49.4149 33.756 48.6889 33.966 47.8849 33.966C47.2009 33.966 46.6069 33.828 46.1029 33.552C45.6109 33.276 45.2209 32.904 44.9329 32.436V38.664H41.4049V23.742H44.9329V25.146ZM48.6049 28.782C48.6049 28.122 48.4249 27.612 48.0649 27.252C47.7169 26.88 47.2849 26.694 46.7689 26.694C46.2529 26.694 45.8149 26.88 45.4549 27.252C45.1069 27.624 44.9329 28.134 44.9329 28.782C44.9329 29.442 45.1069 29.958 45.4549 30.33C45.8149 30.702 46.2529 30.888 46.7689 30.888C47.2849 30.888 47.7169 30.702 48.0649 30.33C48.4249 29.946 48.6049 29.43 48.6049 28.782ZM57.1673 20.52V33.84H53.6393V20.52H57.1673ZM58.6004 28.782C58.6004 27.738 58.7864 26.826 59.1584 26.046C59.5424 25.266 60.0584 24.666 60.7064 24.246C61.3664 23.826 62.0984 23.616 62.9024 23.616C63.5984 23.616 64.1984 23.754 64.7024 24.03C65.2064 24.306 65.5964 24.678 65.8724 25.146V23.742H69.4004V33.84H65.8724V32.436C65.5964 32.904 65.2004 33.276 64.6844 33.552C64.1804 33.828 63.5864 33.966 62.9024 33.966C62.0984 33.966 61.3664 33.756 60.7064 33.336C60.0584 32.916 59.5424 32.316 59.1584 31.536C58.7864 30.744 58.6004 29.826 58.6004 28.782ZM65.8724 28.782C65.8724 28.134 65.6924 27.624 65.3324 27.252C64.9844 26.88 64.5524 26.694 64.0364 26.694C63.5084 26.694 63.0704 26.88 62.7224 27.252C62.3744 27.612 62.2004 28.122 62.2004 28.782C62.2004 29.43 62.3744 29.946 62.7224 30.33C63.0704 30.702 63.5084 30.888 64.0364 30.888C64.5524 30.888 64.9844 30.702 65.3324 30.33C65.6924 29.958 65.8724 29.442 65.8724 28.782ZM77.3688 30.834V33.84H75.8388C73.2588 33.84 71.9688 32.562 71.9688 30.006V26.676H70.7268V23.742H71.9688V21.294H75.5148V23.742H77.3508V26.676H75.5148V30.06C75.5148 30.336 75.5748 30.534 75.6948 30.654C75.8268 30.774 76.0428 30.834 76.3428 30.834H77.3688ZM88.6349 28.674C88.6349 28.95 88.6169 29.226 88.5809 29.502H81.9029C81.9389 30.054 82.0889 30.468 82.3529 30.744C82.6289 31.008 82.9769 31.14 83.3969 31.14C83.9849 31.14 84.4049 30.876 84.6569 30.348H88.4189C88.2629 31.044 87.9569 31.668 87.5009 32.22C87.0569 32.76 86.4929 33.186 85.8089 33.498C85.1249 33.81 84.3689 33.966 83.5409 33.966C82.5449 33.966 81.6569 33.756 80.8769 33.336C80.1089 32.916 79.5029 32.316 79.0589 31.536C78.6269 30.756 78.4109 29.838 78.4109 28.782C78.4109 27.726 78.6269 26.814 79.0589 26.046C79.4909 25.266 80.0909 24.666 80.8589 24.246C81.6389 23.826 82.5329 23.616 83.5409 23.616C84.5369 23.616 85.4189 23.82 86.1869 24.228C86.9549 24.636 87.5549 25.224 87.9869 25.992C88.4189 26.748 88.6349 27.642 88.6349 28.674ZM85.0349 27.792C85.0349 27.36 84.8909 27.024 84.6029 26.784C84.3149 26.532 83.9549 26.406 83.5229 26.406C83.0909 26.406 82.7369 26.526 82.4609 26.766C82.1849 26.994 82.0049 27.336 81.9209 27.792H85.0349ZM103.55 25.38C103.55 26.148 103.37 26.85 103.01 27.486C102.662 28.11 102.128 28.614 101.408 28.998C100.7 29.37 99.8301 29.556 98.7981 29.556H97.0521V33.84H93.5241V21.15H98.7981C99.8181 21.15 100.682 21.33 101.39 21.69C102.11 22.05 102.65 22.548 103.01 23.184C103.37 23.82 103.55 24.552 103.55 25.38ZM98.4561 26.748C99.4521 26.748 99.9501 26.292 99.9501 25.38C99.9501 24.456 99.4521 23.994 98.4561 23.994H97.0521V26.748H98.4561ZM108.495 25.524C108.891 24.948 109.371 24.492 109.935 24.156C110.499 23.82 111.105 23.652 111.753 23.652V27.414H110.763C109.995 27.414 109.425 27.564 109.053 27.864C108.681 28.164 108.495 28.686 108.495 29.43V33.84H104.967V23.742H108.495V25.524ZM117.716 33.966C116.708 33.966 115.802 33.756 114.998 33.336C114.206 32.916 113.582 32.316 113.126 31.536C112.67 30.756 112.442 29.838 112.442 28.782C112.442 27.738 112.67 26.826 113.126 26.046C113.594 25.266 114.224 24.666 115.016 24.246C115.82 23.826 116.726 23.616 117.734 23.616C118.742 23.616 119.642 23.826 120.434 24.246C121.238 24.666 121.868 25.266 122.324 26.046C122.792 26.826 123.026 27.738 123.026 28.782C123.026 29.826 122.792 30.744 122.324 31.536C121.868 32.316 121.238 32.916 120.434 33.336C119.63 33.756 118.724 33.966 117.716 33.966ZM117.716 30.906C118.208 30.906 118.616 30.726 118.94 30.366C119.276 29.994 119.444 29.466 119.444 28.782C119.444 28.098 119.276 27.576 118.94 27.216C118.616 26.856 118.214 26.676 117.734 26.676C117.254 26.676 116.852 26.856 116.528 27.216C116.204 27.576 116.042 28.098 116.042 28.782C116.042 29.478 116.198 30.006 116.51 30.366C116.822 30.726 117.224 30.906 117.716 30.906ZM128.188 23.616C128.872 23.616 129.466 23.754 129.97 24.03C130.486 24.306 130.882 24.678 131.158 25.146V23.742H134.686V33.732C134.686 34.68 134.506 35.532 134.146 36.288C133.786 37.056 133.222 37.668 132.454 38.124C131.698 38.58 130.738 38.808 129.574 38.808C128.014 38.808 126.766 38.442 125.83 37.71C124.894 36.978 124.36 35.982 124.228 34.722H127.702C127.774 35.046 127.954 35.298 128.242 35.478C128.53 35.658 128.902 35.748 129.358 35.748C130.558 35.748 131.158 35.076 131.158 33.732V32.436C130.882 32.904 130.486 33.276 129.97 33.552C129.466 33.828 128.872 33.966 128.188 33.966C127.384 33.966 126.652 33.756 125.992 33.336C125.344 32.916 124.828 32.316 124.444 31.536C124.072 30.744 123.886 29.826 123.886 28.782C123.886 27.738 124.072 26.826 124.444 26.046C124.828 25.266 125.344 24.666 125.992 24.246C126.652 23.826 127.384 23.616 128.188 23.616ZM131.158 28.782C131.158 28.134 130.978 27.624 130.618 27.252C130.27 26.88 129.838 26.694 129.322 26.694C128.794 26.694 128.356 26.88 128.008 27.252C127.66 27.612 127.486 28.122 127.486 28.782C127.486 29.43 127.66 29.946 128.008 30.33C128.356 30.702 128.794 30.888 129.322 30.888C129.838 30.888 130.27 30.702 130.618 30.33C130.978 29.958 131.158 29.442 131.158 28.782ZM140.224 25.524C140.62 24.948 141.1 24.492 141.664 24.156C142.228 23.82 142.834 23.652 143.482 23.652V27.414H142.492C141.724 27.414 141.154 27.564 140.782 27.864C140.41 28.164 140.224 28.686 140.224 29.43V33.84H136.696V23.742H140.224V25.524ZM144.171 28.782C144.171 27.738 144.357 26.826 144.729 26.046C145.113 25.266 145.629 24.666 146.277 24.246C146.937 23.826 147.669 23.616 148.473 23.616C149.169 23.616 149.769 23.754 150.273 24.03C150.777 24.306 151.167 24.678 151.443 25.146V23.742H154.971V33.84H151.443V32.436C151.167 32.904 150.771 33.276 150.255 33.552C149.751 33.828 149.157 33.966 148.473 33.966C147.669 33.966 146.937 33.756 146.277 33.336C145.629 32.916 145.113 32.316 144.729 31.536C144.357 30.744 144.171 29.826 144.171 28.782ZM151.443 28.782C151.443 28.134 151.263 27.624 150.903 27.252C150.555 26.88 150.123 26.694 149.607 26.694C149.079 26.694 148.641 26.88 148.293 27.252C147.945 27.612 147.771 28.122 147.771 28.782C147.771 29.43 147.945 29.946 148.293 30.33C148.641 30.702 149.079 30.888 149.607 30.888C150.123 30.888 150.555 30.702 150.903 30.33C151.263 29.958 151.443 29.442 151.443 28.782ZM170.175 23.652C171.447 23.652 172.443 24.036 173.163 24.804C173.895 25.572 174.261 26.622 174.261 27.954V33.84H170.733V28.422C170.733 27.882 170.583 27.462 170.283 27.162C169.983 26.862 169.575 26.712 169.059 26.712C168.543 26.712 168.135 26.862 167.835 27.162C167.535 27.462 167.385 27.882 167.385 28.422V33.84H163.857V28.422C163.857 27.882 163.707 27.462 163.407 27.162C163.119 26.862 162.717 26.712 162.201 26.712C161.673 26.712 161.259 26.862 160.959 27.162C160.659 27.462 160.509 27.882 160.509 28.422V33.84H156.981V23.742H160.509V25.074C160.821 24.642 161.223 24.3 161.715 24.048C162.219 23.784 162.795 23.652 163.443 23.652C164.187 23.652 164.847 23.814 165.423 24.138C166.011 24.462 166.473 24.918 166.809 25.506C167.169 24.954 167.643 24.51 168.231 24.174C168.819 23.826 169.467 23.652 170.175 23.652ZM189.388 23.652C190.66 23.652 191.656 24.036 192.376 24.804C193.108 25.572 193.474 26.622 193.474 27.954V33.84H189.946V28.422C189.946 27.882 189.796 27.462 189.496 27.162C189.196 26.862 188.788 26.712 188.272 26.712C187.756 26.712 187.348 26.862 187.048 27.162C186.748 27.462 186.598 27.882 186.598 28.422V33.84H183.07V28.422C183.07 27.882 182.92 27.462 182.62 27.162C182.332 26.862 181.93 26.712 181.414 26.712C180.886 26.712 180.472 26.862 180.172 27.162C179.872 27.462 179.722 27.882 179.722 28.422V33.84H176.194V23.742H179.722V25.074C180.034 24.642 180.436 24.3 180.928 24.048C181.432 23.784 182.008 23.652 182.656 23.652C183.4 23.652 184.06 23.814 184.636 24.138C185.224 24.462 185.686 24.918 186.022 25.506C186.382 24.954 186.856 24.51 187.444 24.174C188.032 23.826 188.68 23.652 189.388 23.652ZM205.055 28.674C205.055 28.95 205.037 29.226 205.001 29.502H198.323C198.359 30.054 198.509 30.468 198.773 30.744C199.049 31.008 199.397 31.14 199.817 31.14C200.405 31.14 200.825 30.876 201.077 30.348H204.839C204.683 31.044 204.377 31.668 203.921 32.22C203.477 32.76 202.913 33.186 202.229 33.498C201.545 33.81 200.789 33.966 199.961 33.966C198.965 33.966 198.077 33.756 197.297 33.336C196.529 32.916 195.923 32.316 195.479 31.536C195.047 30.756 194.831 29.838 194.831 28.782C194.831 27.726 195.047 26.814 195.479 26.046C195.911 25.266 196.511 24.666 197.279 24.246C198.059 23.826 198.953 23.616 199.961 23.616C200.957 23.616 201.839 23.82 202.607 24.228C203.375 24.636 203.975 25.224 204.407 25.992C204.839 26.748 205.055 27.642 205.055 28.674ZM201.455 27.792C201.455 27.36 201.311 27.024 201.023 26.784C200.735 26.532 200.375 26.406 199.943 26.406C199.511 26.406 199.157 26.526 198.881 26.766C198.605 26.994 198.425 27.336 198.341 27.792H201.455ZM210.027 25.524C210.423 24.948 210.903 24.492 211.467 24.156C212.031 23.82 212.637 23.652 213.285 23.652V27.414H212.295C211.527 27.414 210.957 27.564 210.585 27.864C210.213 28.164 210.027 28.686 210.027 29.43V33.84H206.499V23.742H210.027V25.524Z" fill="black" fill-opacity="0.9"/>
<path fill-rule="evenodd" clip-rule="evenodd" d="M10.146 0C11.7803 0.615455 13.0196 1.52512 13.184 2.84C14.5775 1.95993 16.6809 0.808766 18.7701 0H25.4368C26.0487 0.405813 26.9008 1.09832 27.36 1.84952V7.488H18.336V33.84H8.928V7.488H0V0H10.146Z" fill="black" fill-opacity="0.9"/>
</svg>
